# File created by Blade
# Date/Time:  Thu Sep 25 19:32:06 2014
# Frame Rate: 120.000 fps
#------------------------------------------------------
:FULLY-SPECIFIED
:DEGREES
1398
root -3.072398 31.601513 -4.716318 3.654641 8.390785 8.203616
Spine -0.256424 8.757985 44.685109
Head -3.540944 -17.745627 11.484903
LeftShoulder -10.301063 2.296806 41.409060
LeftArm 3.987044 -58.519171 -0.328947
LeftForeArm -44.833848 0.000000 18.009395
LeftHand -4.486087 -0.000000 -17.420532
LeftHandThumb1 -26.253704 0.000000 33.147579
RightShoulder -9.665960 9.044478 -14.004804
RightArm -19.397091 -39.734634 77.582362
RightForeArm 2.917411 -0.000000 9.754831
RightHand -7.179984 0.000000 1.546413
RightHandThumb1 -24.326973 -0.000000 -32.862282
LeftUpLeg 5.020962 -0.124797 -23.440629
LeftLeg -1.243052 -0.000000 0.000000
LeftFoot -7.693853 -1.296024 -8.455557
LeftToeBase 10.737460 -0.000000 -0.000000
RightUpLeg -24.665511 0.317982 1.098771
RightLeg 37.743174 -0.000000 -0.000000
RightFoot -17.062641 -18.279315 -3.585284
RightToeBase -2.985160 -0.000000 0.000000
1399
root -3.072469 31.600000 -4.711218 3.615036 8.396618 8.219702
Spine -0.270029 8.767410 44.700087
Head -3.503150 -17.772835 11.417987
LeftShoulder -10.266438 2.244599 41.396027
LeftArm 3.829188 -58.465560 -0.270896
LeftForeArm -44.720050 -0.000000 17.913070
LeftHand -4.449287 0.000000 -17.660584
LeftHandThumb1 -26.253704 0.000000 33.147579
RightShoulder -9.759477 8.996037 -13.994988
RightArm -19.456655 -39.609730 77.590825
RightForeArm 3.174691 -0.000000 9.683486
RightHand -7.262207 -0.000000 1.705686
RightHandThumb1 -24.326973 -0.000000 -32.862282
LeftUpLeg 5.036583 0.031441 -23.442584
LeftLeg -1.171214 -0.000000 0.000000
LeftFoot -7.719516 -1.452772 -8.433825
LeftToeBase 10.696793 -0.000000 -0.000000
RightUpLeg -24.630126 0.341047 1.082363
RightLeg 37.778147 -0.000000 -0.000000
RightFoot -17.075385 -18.310785 -3.582042
RightToeBase -2.993258 -0.000000 0.000000
1400
root -3.071158 31.598242 -4.707723 3.587660 8.394504 8.243949
Spine -0.290276 8.736126 44.705727
Head -3.435476 -17.767997 11.326188
LeftShoulder -10.288567 2.304132 41.350898
LeftArm 3.790198 -58.451953 -0.288990
LeftForeArm -45.020547 -0.000000 17.846068
LeftHand -4.474525 -0.000000 -17.428585
LeftHandThumb1 -26.253704 0.000000 33.147579
RightShoulder -9.793670 8.957588 -13.979757
RightArm -19.518069 -39.448323 77.606712
RightForeArm 3.486894 -0.000000 9.561896
RightHand -7.152811 -0.000000 1.676896
RightHandThumb1 -24.326973 -0.000000 -32.862282
LeftUpLeg 5.036428 0.186866 -23.456809
LeftLeg -1.096066 -0.000000 0.000000
LeftFoot -7.787497 -1.622173 -8.299000
LeftToeBase 10.917953 -0.000000 -0.000000
RightUpLeg -24.613781 0.351132 1.055414
RightLeg 37.821355 -0.000000 -0.000000
RightFoot -17.103054 -18.310837 -3.549512
RightToeBase -3.002528 -0.000000 0.000000
1401
root -3.071605 31.596587 -4.703848 3.555636 8.379166 8.259382
Spine -0.303720 8.726721 44.717158
Head -3.344551 -17.774501 11.238454
LeftShoulder -10.267001 2.337312 41.353818
LeftArm 3.627349 -58.448645 -0.254792
LeftForeArm -44.690860 0.000000 17.771300
LeftHand -4.478317 -0.000000 -17.779332
LeftHandThumb1 -26.253704 0.000000 33.147579
RightShoulder -9.826323 8.881069 -13.941780
RightArm -19.514755 -39.244640 77.569115
RightForeArm 3.751302 0.000000 9.451015
RightHand -7.274006 -0.000000 1.763582
RightHandThumb1 -24.326973 -0.000000 -32.862282
LeftUpLeg 5.039122 0.350081 -23.457789
LeftLeg -1.036528 -0.000000 0.000000
LeftFoot -7.742616 -1.764631 -8.332831
LeftToeBase 10.632208 -0.000000 -0.000000
RightUpLeg -24.590855 0.366256 1.042273
RightLeg 37.855263 -0.000000 -0.000000
RightFoot -17.120956 -18.315670 -3.541724
RightToeBase -2.998048 -0.000000 0.000000
1402
root -3.070773 31.594385 -4.700869 3.524053 8.368032 8.293528
Spine -0.319989 8.691188 44.705027
Head -3.233180 -17.763062 11.159149
LeftShoulder -10.317673 2.318490 41.321184
LeftArm 3.683330 -58.300854 -0.326344
LeftForeArm -45.179718 -0.000000 17.681806
LeftHand -4.469967 0.000000 -17.546372
LeftHandThumb1 -26.253704 0.000000 33.147579
RightShoulder -9.844355 8.823459 -13.898957
RightArm -19.518469 -39.086757 77.549621
RightForeArm 4.043819 -0.000000 9.330471
RightHand -7.198034 -0.000000 1.759196
RightHandThumb1 -24.326973 -0.000000 -32.862282
LeftUpLeg 5.044706 0.508492 -23.481289
LeftLeg -0.968955 -0.000000 0.000000
LeftFoot -7.809922 -1.903166 -8.195142
LeftToeBase 10.821454 -0.000000 -0.000000
RightUpLeg -24.570582 0.399474 1.004129
RightLeg 37.899842 -0.000000 -0.000000
RightFoot -17.150720 -18.339675 -3.511202
RightToeBase -3.033714 -0.000000 0.000000
